<?xml version="1.0" encoding="UTF-8"?>
<svg xmlns="http://www.w3.org/2000/svg" version="1.1" viewBox="0 0 492 492">
  <!-- Generator: Adobe Illustrator 28.6.0, SVG Export Plug-In . SVG Version: 1.2.0 Build 709)  -->
  <g>
    <g id="Layer_1">
      <g>
        <path d="M126.72,117.55h41.35v220.53c0,7.23,2.96,13.81,7.74,18.58,4.77,4.77,11.35,7.74,18.58,7.74h141.59v28.82c0,10.41-4.25,19.87-11.11,26.73-6.85,6.85-16.32,11.11-26.73,11.11H126.72c-10.41,0-19.87-4.25-26.73-11.11-6.86-6.86-11.11-16.32-11.11-26.73v-237.83c0-10.41,4.26-19.87,11.11-26.73,6.85-6.85,16.32-11.11,26.73-11.11h0ZM156.55,129.07h-29.83c-7.23,0-13.81,2.96-18.58,7.74-4.77,4.77-7.74,11.35-7.74,18.58v237.83c0,7.23,2.96,13.81,7.74,18.58,4.77,4.77,11.35,7.74,18.58,7.74h171.42c7.23,0,13.81-2.96,18.58-7.74s7.74-11.35,7.74-18.58v-17.3h-130.07c-10.41,0-19.87-4.26-26.73-11.11-6.85-6.86-11.11-16.32-11.11-26.73v-209.01Z"/>
        <path d="M194.38,62.42h171.42c10.41,0,19.87,4.26,26.73,11.11,6.86,6.85,11.11,16.32,11.11,26.73v237.83c0,10.41-4.25,19.87-11.11,26.73-6.86,6.85-16.32,11.11-26.73,11.11h-171.42c-10.41,0-19.87-4.26-26.73-11.11-6.85-6.86-11.11-16.32-11.11-26.73V100.26c0-10.41,4.26-19.87,11.11-26.73,6.86-6.85,16.32-11.11,26.73-11.11h0ZM365.8,73.94h-171.42c-7.23,0-13.81,2.96-18.58,7.74-4.77,4.77-7.74,11.35-7.74,18.58v237.83c0,7.23,2.96,13.81,7.74,18.58,4.77,4.77,11.35,7.74,18.58,7.74h171.42c7.23,0,13.81-2.96,18.58-7.74,4.77-4.77,7.74-11.35,7.74-18.58V100.26c0-7.23-2.96-13.81-7.74-18.58-4.77-4.77-11.35-7.74-18.58-7.74Z"/>
      </g>
    </g>
  </g>
</svg>